<svg width="143" height="80" viewBox="0 0 143 80" fill="none" xmlns="http://www.w3.org/2000/svg">
<path d="M56.738 68.2711H58.2782C58.4216 68.2711 58.5475 68.237 58.6534 68.1708C58.7612 68.1047 58.8417 68.0099 58.8956 67.8847C58.9497 67.7615 58.9783 67.6127 58.9783 67.4376V66.1129C58.9783 65.9305 58.9497 65.7747 58.8956 65.6462C58.8417 65.5175 58.7629 65.419 58.6571 65.3528C58.5508 65.2867 58.4255 65.2527 58.2782 65.2527H56.738V64.4304H58.2461C58.5908 64.4304 58.8834 64.4967 59.1256 64.6271C59.3662 64.7575 59.5509 64.949 59.6768 65.1973C59.8042 65.4477 59.8669 65.7501 59.8669 66.102V67.4537C59.8669 67.7988 59.8023 68.0937 59.675 68.3388C59.5476 68.5836 59.3624 68.7696 59.1202 68.8985C58.8781 69.0289 58.5872 69.0933 58.2461 69.0933H56.738V68.2711ZM56.1851 64.4304H57.0627V72.047H56.1851V64.4304ZM63.7744 68.0027H65.1887C65.3918 68.0027 65.5658 67.9651 65.7114 67.8901C65.8567 67.8149 65.9682 67.7059 66.0436 67.5611C66.1189 67.4161 66.1566 67.2409 66.1566 67.039V66.2592C66.1566 66.0465 66.1189 65.864 66.0436 65.712C65.9682 65.5601 65.8569 65.4437 65.7114 65.3651C65.566 65.2863 65.3918 65.2472 65.1887 65.2472H63.7744V64.4246H65.1152C65.5173 64.4246 65.8638 64.4929 66.151 64.6269C66.4382 64.7607 66.6573 64.9594 66.8082 65.2184C66.9588 65.4796 67.0344 65.7908 67.0344 66.1535V67.044C67.0344 67.4175 66.9588 67.7377 66.8082 68.0061C66.6573 68.2724 66.4382 68.4761 66.151 68.6155C65.8638 68.755 65.5175 68.8246 65.1152 68.8246H63.7744V68.0023V68.0027ZM63.3058 64.4248H64.1835V72.047H63.3058V64.4248ZM65.2249 68.5892L66.0311 68.3495L67.2498 72.047H66.2662L65.2249 68.5892ZM72.3795 72.1256C71.9795 72.1256 71.6364 72.0507 71.3527 71.9003C71.0689 71.7504 70.852 71.5322 70.7028 71.2461C70.5542 70.9599 70.4802 70.6132 70.4802 70.209V66.2649C70.4802 65.859 70.5542 65.5137 70.7028 65.2276C70.852 64.9396 71.0689 64.7235 71.3527 64.5751C71.6364 64.4265 71.9793 64.3516 72.3795 64.3516C72.778 64.3516 73.121 64.4265 73.4048 64.5751C73.6881 64.7235 73.9055 64.9396 74.0545 65.2276C74.2033 65.5137 74.277 65.8588 74.277 66.2649V70.209C74.277 70.613 74.2033 70.9599 74.0545 71.2461C73.9055 71.5322 73.6881 71.7504 73.4048 71.9003C73.121 72.0507 72.7782 72.1256 72.3795 72.1256ZM72.3795 71.2712C72.5968 71.2712 72.7814 71.2319 72.9343 71.1514C73.0869 71.0711 73.2017 70.9549 73.281 70.8011C73.3599 70.6475 73.3994 70.4613 73.3994 70.2451V66.2329C73.3994 66.0164 73.3597 65.8304 73.281 65.6765C73.2017 65.5248 73.0871 65.4067 72.9343 65.3262C72.7816 65.2458 72.5968 65.2067 72.3795 65.2067C72.1641 65.2067 71.9812 65.246 71.8283 65.3262C71.6759 65.4069 71.561 65.5248 71.4799 65.6765C71.3993 65.8303 71.3581 66.0164 71.3581 66.2329V70.2451C71.3581 70.4613 71.3994 70.6473 71.4799 70.8011C71.561 70.9549 71.6757 71.0713 71.8283 71.1514C71.981 71.2321 72.1641 71.2712 72.3795 71.2712ZM77.7446 64.4304H78.6224V72.047H77.7446V64.4304ZM78.2709 67.9187H80.7696V68.7409H78.2709V67.9187ZM78.2709 64.4304H81.0316V65.2527H78.2709V64.4304ZM84.3411 64.4304H85.2189V72.047H84.3411V64.4304ZM84.8618 71.2245H87.6227V72.047H84.8618V71.2245ZM84.8618 67.8506H87.3607V68.673H84.8618V67.8506ZM84.8618 64.4304H87.6227V65.2527H84.8618V64.4304ZM92.7417 72.1256C92.3344 72.1256 91.9933 72.0578 91.7147 71.9237C91.4385 71.7897 91.2302 71.5893 91.0903 71.3211C90.9505 71.0548 90.8804 70.7259 90.8804 70.3342V69.9571H91.7528V70.3181C91.7528 70.64 91.8352 70.8834 92.0021 71.0459C92.1692 71.2103 92.4151 71.2927 92.7417 71.2927C93.0613 71.2927 93.3 71.2103 93.4615 71.0459C93.623 70.8834 93.7041 70.64 93.7041 70.3181V69.7584C93.7041 69.5456 93.6536 69.3634 93.5531 69.2112C93.4544 69.0593 93.327 68.9322 93.1747 68.834C93.024 68.7338 92.8193 68.625 92.5627 68.5067C92.5552 68.5033 92.5481 68.4997 92.5392 68.4962C92.5304 68.4926 92.5229 68.4891 92.5157 68.4853L92.4422 68.4477C92.1082 68.2903 91.8391 68.1421 91.6325 68.0025C91.4242 67.8631 91.2485 67.6717 91.103 67.4286C90.9576 67.1872 90.8858 66.8833 90.8858 66.5201V66.1127C90.8858 65.7283 90.9557 65.4046 91.0956 65.1436C91.2358 64.8808 91.4441 64.6838 91.7186 64.5517C91.9933 64.4177 92.3325 64.3516 92.7364 64.3516C93.1294 64.3516 93.4598 64.4194 93.7274 64.5535C93.9967 64.6877 94.1976 64.8881 94.3322 65.1542C94.467 65.4188 94.5351 65.7459 94.5351 66.1322V66.5311H93.6609V66.1537C93.6609 65.8318 93.5836 65.5906 93.4274 65.4259C93.2715 65.2616 93.0415 65.1793 92.7364 65.1793C92.4131 65.1793 92.1692 65.2579 92.0056 65.4153C91.8406 65.5726 91.758 65.8015 91.758 66.1018V66.5257C91.758 66.7383 91.81 66.919 91.9124 67.0674C92.0166 67.2158 92.1458 67.3375 92.3001 67.4286C92.4543 67.5218 92.6644 67.6305 92.93 67.7576C92.9589 67.7664 92.9841 67.7791 93.0072 67.7916C93.0288 67.8023 93.0559 67.8149 93.0829 67.8257C93.0971 67.8328 93.1115 67.838 93.1277 67.8454C93.1439 67.8525 93.1581 67.8596 93.1728 67.8667C93.4708 68.0063 93.7147 68.1457 93.9068 68.2832C94.097 68.4208 94.2569 68.6087 94.3844 68.8467C94.5135 69.0845 94.5763 69.3847 94.5763 69.7479V70.334C94.5763 70.7255 94.5082 71.0528 94.3701 71.3192C94.23 71.584 94.0252 71.7861 93.7545 71.9218C93.4813 72.0576 93.1441 72.1254 92.7417 72.1254V72.1256ZM99.6954 72.1256C99.2882 72.1256 98.9469 72.0578 98.6685 71.9237C98.3921 71.7897 98.1838 71.5893 98.0439 71.3211C97.9041 71.0548 97.834 70.7259 97.834 70.3342V69.9571H98.7065V70.3181C98.7065 70.64 98.7889 70.8834 98.9558 71.0459C99.1229 71.2103 99.3687 71.2927 99.6954 71.2927C100.015 71.2927 100.254 71.2103 100.415 71.0459C100.577 70.8834 100.658 70.64 100.658 70.3181V69.7584C100.658 69.5456 100.607 69.3634 100.507 69.2112C100.408 69.0593 100.281 68.9322 100.128 68.834C99.9776 68.7338 99.7729 68.625 99.5163 68.5067C99.5088 68.5033 99.5017 68.4997 99.4928 68.4962C99.484 68.4926 99.4765 68.4891 99.4694 68.4853L99.3958 68.4477C99.062 68.2903 98.7927 68.1421 98.5862 68.0025C98.3779 67.8631 98.2021 67.6717 98.0566 67.4286C97.9112 67.1872 97.8394 66.8833 97.8394 66.5201V66.1127C97.8394 65.7283 97.9095 65.4046 98.0493 65.1436C98.1894 64.8808 98.3977 64.6838 98.6724 64.5517C98.9469 64.4177 99.2861 64.3516 99.6902 64.3516C100.083 64.3516 100.413 64.4194 100.681 64.5535C100.95 64.6877 101.151 64.8881 101.286 65.1542C101.421 65.4188 101.489 65.7459 101.489 66.1322V66.5311H100.615V66.1537C100.615 65.8318 100.537 65.5906 100.381 65.4259C100.225 65.2616 99.9953 65.1793 99.6902 65.1793C99.3669 65.1793 99.1229 65.2579 98.9594 65.4153C98.7943 65.5726 98.7119 65.8015 98.7119 66.1018V66.5257C98.7119 66.7383 98.7636 66.919 98.8661 67.0674C98.9702 67.2158 99.0994 67.3375 99.2538 67.4286C99.408 67.5218 99.6182 67.6305 99.8836 67.7576C99.9125 67.7664 99.9377 67.7791 99.9608 67.7916C99.9826 67.8023 100.01 67.8149 100.036 67.8257C100.051 67.8328 100.065 67.838 100.081 67.8454C100.098 67.8525 100.112 67.8596 100.126 67.8667C100.424 68.0063 100.668 68.1457 100.86 68.2832C101.051 68.4208 101.211 68.6087 101.338 68.8467C101.467 69.0845 101.53 69.3847 101.53 69.7479V70.334C101.53 70.7255 101.462 71.0528 101.324 71.3192C101.184 71.584 100.979 71.7861 100.708 71.9218C100.435 72.0576 100.098 72.1254 99.6954 72.1254V72.1256ZM105.875 72.047H104.996V64.4304H105.875V72.047ZM111.393 72.1256C110.993 72.1256 110.65 72.0507 110.366 71.9003C110.082 71.7504 109.866 71.5322 109.717 71.2461C109.568 70.9599 109.494 70.6132 109.494 70.209V66.2649C109.494 65.859 109.568 65.5137 109.717 65.2276C109.866 64.9396 110.082 64.7235 110.366 64.5751C110.65 64.4265 110.993 64.3516 111.393 64.3516C111.792 64.3516 112.135 64.4265 112.418 64.5751C112.702 64.7235 112.919 64.9396 113.068 65.2276C113.217 65.5137 113.291 65.8588 113.291 66.2649V70.209C113.291 70.613 113.217 70.9599 113.068 71.2461C112.919 71.5322 112.702 71.7504 112.418 71.9003C112.135 72.0507 111.792 72.1256 111.393 72.1256ZM111.393 71.2712C111.61 71.2712 111.795 71.2319 111.948 71.1514C112.1 71.0711 112.215 70.9549 112.295 70.8011C112.373 70.6475 112.413 70.4613 112.413 70.2451V66.2329C112.413 66.0164 112.373 65.8304 112.295 65.6765C112.215 65.5248 112.101 65.4067 111.948 65.3262C111.795 65.2458 111.61 65.2067 111.393 65.2067C111.178 65.2067 110.995 65.246 110.842 65.3262C110.689 65.4069 110.575 65.5248 110.494 65.6765C110.413 65.8303 110.372 66.0164 110.372 66.2329V70.2451C110.372 70.4613 110.413 70.6473 110.494 70.8011C110.575 70.9549 110.689 71.0713 110.842 71.1514C110.995 71.2321 111.178 71.2712 111.393 71.2712ZM116.758 64.4304H117.552L119.808 70.4753L119.666 70.6111V64.4304H120.513V72.0416H119.713L117.464 66.086L117.611 65.9503V72.0418H116.758V64.4306V64.4304ZM125.378 64.4304H126.293L128.059 72.047H127.103L125.835 65.6301L124.568 72.047H123.611L125.377 64.4304H125.378ZM124.669 69.4706H127.103V70.293H124.669V69.4706ZM131.263 64.4304H132.141V72.047H131.263V64.4304ZM131.8 71.2245H134.441V72.047H131.8V71.2245ZM139.348 72.1256C138.941 72.1256 138.599 72.0578 138.321 71.9237C138.045 71.7897 137.836 71.5893 137.697 71.3211C137.557 71.0548 137.487 70.7259 137.487 70.3342V69.9571H138.359V70.3181C138.359 70.64 138.442 70.8834 138.608 71.0459C138.776 71.2103 139.021 71.2927 139.348 71.2927C139.668 71.2927 139.906 71.2103 140.068 71.0459C140.229 70.8834 140.31 70.64 140.31 70.3181V69.7584C140.31 69.5456 140.26 69.3634 140.159 69.2112C140.061 69.0593 139.933 68.9322 139.781 68.834C139.63 68.7338 139.426 68.625 139.169 68.5067C139.161 68.5033 139.154 68.4997 139.145 68.4962C139.136 68.4926 139.129 68.4891 139.122 68.4853L139.048 68.4477C138.714 68.2903 138.445 68.1421 138.239 68.0025C138.03 67.8631 137.855 67.6717 137.709 67.4286C137.564 67.1872 137.492 66.8833 137.492 66.5201V66.1127C137.492 65.7283 137.562 65.4046 137.702 65.1436C137.842 64.8808 138.05 64.6838 138.325 64.5517C138.599 64.4177 138.939 64.3516 139.343 64.3516C139.736 64.3516 140.066 64.4194 140.334 64.5535C140.603 64.6877 140.804 64.8881 140.938 65.1542C141.073 65.4188 141.141 65.7459 141.141 66.1322V66.5311H140.267V66.1537C140.267 65.8318 140.19 65.5906 140.034 65.4259C139.878 65.2616 139.648 65.1793 139.343 65.1793C139.019 65.1793 138.776 65.2579 138.612 65.4153C138.447 65.5726 138.364 65.8015 138.364 66.1018V66.5257C138.364 66.7383 138.416 66.919 138.519 67.0674C138.623 67.2158 138.752 67.3375 138.906 67.4286C139.061 67.5218 139.271 67.6305 139.536 67.7576C139.565 67.7664 139.59 67.7791 139.613 67.7916C139.635 67.8023 139.662 67.8149 139.689 67.8257C139.703 67.8328 139.718 67.838 139.734 67.8454C139.75 67.8525 139.764 67.8596 139.779 67.8667C140.077 68.0063 140.321 68.1457 140.513 68.2832C140.703 68.4208 140.863 68.6087 140.991 68.8467C141.12 69.0845 141.183 69.3847 141.183 69.7479V70.334C141.183 70.7255 141.114 71.0528 140.976 71.3192C140.836 71.584 140.631 71.7861 140.361 71.9218C140.088 72.0576 139.75 72.1254 139.348 72.1254V72.1256Z" fill="#C5C6C6"/>
<path d="M75.4424 17.9708H76.9074C77.4905 18.1927 78.0195 18.3073 78.5028 18.3073C78.5028 18.5439 78.8328 18.6968 79.4921 18.7502L81.195 20.0033C82.1308 19.3387 82.7366 18.7274 83.0205 18.1929H83.1279V19.4227L83.2431 19.5373V19.6673C83.1206 19.6673 83.013 19.82 82.9054 20.1177C83.1279 20.1177 83.2431 20.1868 83.2431 20.3164V20.6529L83.1279 20.7902L83.2431 20.9048V21.0118L83.1279 21.1267L83.2431 21.2413V21.8219L83.1279 22.4711L83.2431 22.5781V22.6932L83.1279 23.0519L83.2431 23.3882L83.0207 23.5869L83.2431 23.8083L83.1279 24.3964L83.2431 24.7327L83.0207 25.1758L83.2431 25.3973L83.1279 25.5119L83.2431 25.6268V25.7338L83.1279 27.8882V27.9952L83.0205 28.1326V28.2015L83.2429 28.4459V29.0035L82.9052 29.4771L83.2429 30.0119V30.2337L83.0205 30.4858H79.9601L79.8525 30.3484L79.7376 30.4858H79.1778L79.0623 30.3484H78.9471L78.8397 30.4858L78.7246 30.1269L78.8397 28.3315L78.7246 28.2018V28.133L78.9469 27.4378L78.7246 27.2161V26.7425H78.9469V26.6355L78.7246 26.3222V26.2076L78.9469 25.9631C78.9469 24.3051 78.464 23.144 77.4897 22.4717C77.4897 22.2733 76.8071 22.09 75.4418 21.9065V21.8223L74.8588 22.0209V21.9063C73.8849 22.6702 73.4017 23.7627 73.4017 25.176L73.1946 25.3975V25.6268L73.2866 26.4288L73.1946 26.5435L73.4017 26.7421V27.9952H73.1946L73.2866 28.5606V28.8967L73.1946 29.5843L73.4017 30.2337L73.2864 30.3484L73.4017 30.4858V30.7073L73.1946 31.7157L73.2866 32.159H73.1946L73.4017 33.0527V33.5033L73.2864 33.9768C73.2864 34.168 73.9307 34.9472 75.2193 36.3222C74.92 36.819 74.391 37.3841 73.624 38.026L73.1946 39.7068V40.2874L73.2866 40.7075L73.1946 41.1581L73.4017 41.6242L73.1946 42.5257L73.4017 43.328L73.1946 43.5494L72.6117 43.328H72.5039V43.4424C73.0255 43.5036 73.2864 43.6794 73.2864 43.9772L73.1944 44.6726L73.4015 45.5663L73.2862 45.681V45.7882C73.7696 47.7286 74.4828 48.699 75.4415 48.699H76.1395C78.0108 47.9121 78.9466 46.7965 78.9466 45.3679L79.0617 45.2304L79.3762 45.3679H79.7368V45.2304C79.1387 45.2304 78.8393 44.9248 78.8393 44.3139L78.9468 44.1992L78.8393 43.5498L78.9468 42.213L78.8393 41.5176L78.9468 41.4031H79.1772L79.3762 41.6246L79.7368 41.5174L83.0196 41.4029V41.7392H82.9042L83.1268 43.6643V45.0088L82.9042 45.3677L83.1268 45.681L83.0194 46.239V46.5977H82.659V46.3534H82.4596C82.4596 46.59 82.6053 46.7124 82.9042 46.7124L83.0196 46.8194V46.934C82.4596 48.5765 81.4855 49.8065 80.0744 50.6237C79.131 51.8309 77.4666 52.4419 75.089 52.4419C74.5288 52.4419 73.3707 51.8688 71.5989 50.7385C70.6017 49.5467 69.8044 48.4925 69.2213 47.5833V47.3618L69.3364 47.0029H69.2213C69.0681 47.0029 68.7306 46.2618 68.2089 44.7875L68.324 44.6728L67.7563 43.9774L67.1732 41.6246L66.9738 40.2878L67.066 40.1731V40.0582C67.066 38.9431 66.3911 37.8431 65.0411 36.7736L64.7036 36.3226L66.276 34.4205L66.6364 32.5181L66.5212 32.3885C66.598 31.4871 66.7128 30.9675 66.8587 30.8147L66.7513 30.3488L66.9736 29.898L66.8585 29.5847C67.5488 26.3761 68.1854 24.3822 68.7683 23.5878C68.8143 23.1601 68.9678 22.9384 69.2209 22.9384V22.6941C69.2209 22.1438 69.4894 21.6931 70.0263 21.3495C70.241 20.5016 70.9852 19.7833 72.2736 19.2028C72.3504 18.9506 72.7643 18.7292 73.5085 18.5533C73.5085 18.1639 74.1526 17.9726 75.4413 17.9726L75.4424 17.9708ZM78.7252 19.537V19.667H78.8403C78.8403 19.43 78.9477 19.3155 79.1782 19.3155L79.2856 18.9794H79.1782C79.0247 19.0099 78.8788 19.1932 78.7254 19.537H78.7252ZM77.7128 19.537V19.8959H77.8279L77.9201 19.537H77.713H77.7128ZM76.3476 20.6525V20.7898H76.7923V20.6525H76.3476ZM76.3476 21.0112L76.2554 21.1261V21.3475H76.3476L76.455 21.0112H76.3476ZM71.155 21.1261L71.0399 21.2407V21.3477H71.155L71.4924 21.2407V21.1261H71.155ZM75.895 21.3475L75.7799 21.4622V21.5692H76.1403L75.8948 21.3477L75.895 21.3475ZM69.9201 22.6922H70.1195V22.4704C70.342 22.4704 70.4574 22.3941 70.4574 22.2412H70.342L69.9201 22.6922ZM78.8403 22.5772V22.6922L79.3772 22.9365V22.6922L78.9477 22.5772H78.8403ZM80.2978 23.9218L80.7732 24.6169V24.7317H80.9727L80.8805 24.6169V24.5022L80.9727 24.3952V24.2806C80.7809 24.2806 80.5509 24.1586 80.2978 23.9216V23.9218ZM79.6228 24.0593V24.2808H79.9603V24.1661L79.6228 24.0591V24.0593ZM81.0878 24.8387V25.0449H81.3101C81.3101 25.2817 81.4328 25.3961 81.6707 25.3961V25.6254H81.893L81.3099 24.8385H81.0876L81.0878 24.8387ZM82.5452 25.8471V26.3207H82.7905C82.9439 26.3207 83.0207 26.1987 83.0207 25.9618V25.8471H82.9054V26.0916H82.6602V25.8471H82.545H82.5452ZM71.1554 41.9588C71.1554 42.1574 70.9251 42.3405 70.4575 42.5242V42.7457L71.2628 42.0734V41.9588H71.1554ZM71.3777 42.631L71.2626 42.9671H72.0526V42.8601L71.6001 42.631H71.3777ZM72.505 42.7457L72.3899 42.8603V42.9673L72.973 43.1964H73.0883V43.0818L72.505 42.7457ZM69.6904 43.0818C69.5293 43.4258 69.3682 43.6167 69.2224 43.6626V43.5479L68.885 43.6626V43.8612L69.0001 43.7772H69.2224L69.3376 43.8612H69.445C69.445 43.5786 69.6444 43.4028 70.0281 43.3264V43.1964L69.6906 43.0818H69.6904ZM68.4553 43.9755V44.312L68.885 44.0905L68.7697 43.9755V43.861L68.4551 43.9755H68.4553ZM80.0754 45.1215V45.2285H80.4129V45.007L80.0754 45.1217V45.1215ZM80.543 45.5646V45.6793L80.8806 45.7865V45.5648H80.543V45.5646ZM80.9727 45.6793V45.9007H81.5325V45.7863L80.9727 45.6791V45.6793Z" fill="black"/>
<path d="M48.8513 19.9073L49.2473 18.9718C47.9806 22.6189 46.5492 25.8549 44.966 28.693C44.966 28.2955 44.498 27.8156 43.5621 27.2534H43.3555L44.966 28.8985C44.7733 30.2699 44.2364 31.5996 43.3555 32.916L42.9563 34.5203L42.7497 34.3284H42.3507V34.5203H42.7497C42.4333 36.426 41.8274 37.3721 40.9327 37.3721L40.1342 37.5778L39.9278 37.3721V37.5778L40.1342 38.1812H40.5334C40.5334 37.7699 40.7949 37.5778 41.3321 37.5778L41.5385 37.7699V37.9755C40.6024 39.6072 39.9278 41.5679 39.5288 43.8439L41.9378 47.0522C40.1894 48.6289 38.4964 49.8491 36.8582 50.7131C35.3305 54.4286 34.0501 56.9926 33.0314 58.3775L33.2379 58.5831V58.7888C32.2877 61.5721 31.6686 63.0529 31.3795 63.2448C31.3795 64.4514 30.7739 65.0548 29.5625 65.0548C29.5625 65.3701 28.9569 65.5758 27.7454 65.6579L27.5389 65.8498V66.0555L30.7739 65.0546V65.2464C30.7739 66.1926 30.3057 66.6587 29.3559 66.6587V66.8645H29.7688L28.5574 70.0727L28.7501 70.2784V70.4701L28.1445 72.0744C28.1445 72.6638 29.0256 73.0889 30.7739 73.3221H35.4542C37.464 72.1703 38.4688 71.0873 38.4688 70.0727V68.6603L38.7168 66.6587L38.4688 65.6577L38.7168 64.451L38.4688 63.4502L38.9231 60.3925L38.4688 59.995V58.9801C38.4688 58.7198 38.6891 58.5827 39.1158 58.5827L41.9378 58.3771L44.7599 58.5827L45.572 58.3771L45.82 58.5827C45.82 59.4603 45.1316 60.1319 43.755 60.5846V60.7902H44.3608C44.4982 60.3925 44.8977 60.1868 45.572 60.1868L45.3655 62.2023L45.82 66.0551C45.6548 66.5899 45.3655 66.8643 44.9664 66.8643V67.056C45.531 67.056 45.82 67.4535 45.82 68.2626V71.0735C45.82 72.9244 43.7138 75.4197 39.529 78.546C37.5879 79.3551 36.2252 79.7528 35.4542 79.7528L33.6372 79.3551L33.2381 79.7528H32.4258C30.8426 79.7528 27.9243 79.1494 23.6707 77.943L22.06 77.7509H21.6608C19.2656 77.7371 16.7052 78.4914 13.9936 79.9994L13.7456 79.7528L17.4211 71.0735C17.8201 68.9347 18.357 67.865 19.0316 67.865L18.6325 67.2619L20.4495 64.0398V63.848H20.0503V63.6423C21.6883 60.7219 22.8999 57.7465 23.6709 54.73C24.2627 53.8937 24.7445 52.6871 25.1301 51.1104V50.3014L22.666 47.2574C25.1713 45.5985 26.8645 44.3234 27.7456 43.432C29.1773 41.3752 30.1821 39.1539 30.7741 36.7685L31.8203 36.5764V36.1651L31.1733 35.9733L34.0366 28.6926C34.5735 27.8426 34.9056 26.5906 34.9056 25.2741H34.6987C34.465 24.6026 33.3631 26.539 30.6235 27.7853C25.7469 30.2453 27.4257 29.9698 24.4677 31.6534L24.9235 36.5764C24.9235 37.3717 24.6482 37.7695 24.0701 37.7695V38.1808L24.2765 37.9751H24.5245L24.7172 38.1808V40.1824C24.7172 40.4566 24.5106 40.5937 24.0701 40.5937L23.2718 40.7858L23.0653 40.9912V41.1833L19.6376 40.9912H18.4263L17.6276 39.9905V39.579C18.0267 39.579 18.2332 39.4419 18.2332 39.1813H17.8203V33.9165L17.6698 33.3875C21.2469 32.5872 28.942 29.774 35.9904 23.8034C37.1261 22.8417 38.7972 23.3772 40.1998 22.7232C43.5255 21.1726 44.7385 21.2713 48.8517 19.9067L48.8513 19.9073ZM34.6419 22.235L35.4542 22.4271C35.4542 22.3311 34.6419 21.3154 34.6419 22.235ZM36.2525 23.0303H36.4589C35.7817 22.3558 35.2665 22.0488 36.2525 23.0303ZM37.0647 23.4418L37.6141 24.0448L37.6707 23.8395L37.2715 23.4418H37.0649H37.0647ZM38.2761 24.2372V24.4427L40.3273 25.4438L38.4688 24.2372H38.2761ZM42.1443 26.6502C42.1443 26.9108 42.3507 27.0479 42.7497 27.0479H42.9563V26.8559L42.1441 26.6502H42.1443ZM40.3273 34.3286L40.5336 34.9182H40.9327L41.3321 34.5205L40.3271 34.3286H40.3273ZM38.7168 34.7261V34.9182H39.3222L39.5288 34.7261V34.5205H39.3222L38.7168 34.7261ZM36.0597 35.3705V35.5624L36.4589 35.9737H36.858L36.6655 35.768V35.5624L37.863 35.1235V34.9182H37.2713L36.0597 35.3705ZM33.2379 36.1656L35.8535 35.5626V35.3707H35.4542C33.9673 35.6585 33.2379 35.9329 33.2379 36.1658V36.1656ZM32.0263 35.9739V36.1656H33.0314V35.9739H32.0263ZM38.4686 36.5769L38.923 36.9746H39.1156L38.7166 36.5769H38.4686ZM38.4686 37.3723V37.578H38.923L39.5286 37.3723V37.1667H39.322L38.4686 37.3723ZM36.6655 38.1816H36.858L37.2711 37.7703H37.0645L36.6655 38.1816ZM21.0552 38.1816L20.8486 38.3733V38.5791H21.0552L21.8537 38.3733V38.1816H21.0552ZM18.4259 38.9767V39.1823H19.2381L19.6372 38.7848H19.4445L18.4259 38.9767ZM40.5334 62.3952H40.74L41.1391 61.9975H40.9325L40.5334 62.3952ZM25.3222 66.454V66.6595H25.928L26.5334 66.454V66.2618H26.3409L25.322 66.454H25.3222ZM27.5387 66.8652V67.4545L28.5574 67.057L28.7501 67.2627H29.3557V67.057L27.9516 66.8652H27.5387ZM38.923 66.8652V67.057H39.9278V66.8652H38.923ZM40.74 66.8652V67.2627L40.9325 67.057H41.3319L41.5383 67.2627H41.7449V66.8652H40.7398H40.74ZM43.7546 66.8652V67.057H44.7597V66.8652H43.7546ZM22.4589 67.6604L23.0647 67.8659C23.0647 67.5643 23.4089 67.3726 24.0696 67.2629V67.0572H23.0647L22.4589 67.6604ZM25.7351 67.0572V67.2629C26.1344 67.2629 26.3409 67.4 26.3409 67.6604H26.9465V67.4546L26.5334 67.0572H25.7349H25.7351ZM20.0499 67.4546V67.8659H20.8484L20.6419 67.2629L20.0501 67.4546H20.0499Z" fill="black"/>
<path d="M60.0616 17.9712H60.4429C61.3833 17.9712 62.3945 18.8812 63.4856 20.71L63.7961 21.6729H63.6188C63.1486 20.9307 62.4655 20.5599 61.5608 20.5599C61.0995 20.5599 60.7271 20.8337 60.4431 21.3813L61.0199 24.4119C60.8426 24.4119 60.7625 24.5532 60.7625 24.8268L60.6295 24.6681H60.4433V25.3748H60.6295L60.7625 24.8268H61.0199C61.7827 31.5947 62.5633 34.9787 63.3617 34.9787L63.619 35.8001C63.9295 35.8001 64.497 36.2066 65.3044 37.0194V37.1785C64.5415 38.0707 63.9827 38.9013 63.619 39.6611L66.1379 54.2036C66.413 54.9282 66.8211 55.2906 67.3621 55.2906H67.779C68.2936 55.2906 68.8524 54.9282 69.438 54.2036L69.5709 54.3361C67.9742 56.5275 66.4571 57.6229 65.0203 57.6229L63.3615 56.6686H63.0954C61.9866 57.3932 61.206 57.7554 60.7623 57.7554H60.1857C58.9085 57.7554 57.72 56.8278 56.6288 54.9811H56.7528C57.764 55.4493 58.5444 55.6792 59.0946 55.6792C59.6535 55.6259 59.9284 55.2639 59.9284 54.5925L59.538 52.3924L60.3188 51.8533H60.1857L59.5382 52.1361L59.352 51.9773V50.3514C58.9087 50.3514 58.5893 48.9733 58.3941 46.2345L58.2611 46.102V45.9786H56.8862L55.3781 45.8461L54.9612 45.9786L53.0186 45.5366C53.0186 45.7575 52.6548 45.9076 51.9275 45.9786C51.3864 49.0266 50.8807 51.2616 50.4194 52.6755L50.2866 54.725C50.4551 55.2729 50.8187 55.5556 51.3775 55.5556C51.812 55.5556 52.2734 55.3613 52.7524 54.9811V55.2906C52.371 56.1386 51.4661 56.9603 50.0291 57.7554H49.4525C48.6898 57.7554 47.9092 57.3491 47.1107 56.5359H46.9867C46.1705 57.2605 45.4346 57.6227 44.7779 57.6227H44.2014C42.0013 57.0659 40.9015 56.1916 40.9015 54.9809C41.5135 55.361 42.1079 55.5554 42.6933 55.5554C43.7222 55.5554 44.4584 54.7338 44.9021 53.0904H45.0349L44.9021 52.9404V52.5251L46.1528 49.1325L46.0021 49V48.6907L46.5432 46.3672L46.4104 46.2347L47.6343 41.8613L47.5015 41.7022V41.5787C47.6611 41.3843 47.8118 40.7483 47.9448 39.6615C47.7053 38.9901 47.1467 38.1594 46.2862 37.1789C46.4367 36.7636 47.1288 36.0745 48.335 35.1027L49.3287 33.7331C49.3287 32.9202 49.7721 32.3283 50.677 31.9484V31.8159L50.2868 31.6836C50.2158 32.1519 50.0739 32.3904 49.8431 32.3904H49.7101V32.0723C50.9078 27.6724 51.5109 24.9864 51.5109 23.997L51.7947 22.9104C51.7947 21.6206 51.289 20.9665 50.2868 20.9665L49.0359 21.5143V21.3819C50.1268 19.5707 51.1469 18.6697 52.0784 18.6697C52.0784 18.4574 52.3002 18.3604 52.7526 18.3604V18.5104L52.8856 18.3604H53.1961V18.6697H53.4533V18.3604C54.6153 18.3604 55.804 18.9523 57.0194 20.1449C58.1814 18.696 59.1926 17.9716 60.0618 17.9716L60.0616 17.9712ZM53.7193 19.4466V19.6232H53.8433L54.2868 19.4466V19.3141H54.1095L53.7193 19.4466ZM52.6284 20.8427V20.9662H52.7524L53.3291 20.4272H53.1961C52.8148 20.5861 52.6284 20.7186 52.6284 20.8425V20.8427ZM58.6778 27.0272V27.2834C59.0948 27.1682 59.6446 26.7621 60.3189 26.0728H60.1859C59.8046 26.1702 59.3963 26.4969 58.9618 27.0272H58.6778ZM57.72 27.9813H57.853L58.3941 27.6985V27.4159H58.2611L57.72 27.9813ZM55.9281 29.0946H56.0521C56.4691 28.909 56.7085 28.7147 56.753 28.5291V28.3966C56.2028 28.6793 55.9281 28.909 55.9281 29.0946ZM55.6619 28.7853L55.3781 29.3596H55.6619L55.7949 28.918V28.7855H55.6619V28.7853ZM57.1434 29.2269L57.5869 29.6157L58.3943 29.4832V29.7482H58.8378C58.8378 29.4832 58.5982 29.3596 58.1367 29.3596V29.2271L57.9773 29.3596H57.8534L57.1436 29.2271L57.1434 29.2269ZM52.6284 30.729V30.9853L54.9612 29.6159V29.4834H54.6772L52.6284 30.7291V30.729ZM55.6619 29.4832C55.4578 31.1266 55.1296 31.948 54.6772 31.948L54.8103 32.0717L54.4201 34.1479L54.544 34.5632C54.0828 35.6498 53.524 37.6112 52.8854 40.4651L52.7524 40.6152C53.045 40.6152 53.1959 40.7565 53.1959 41.0305L53.3289 41.163H53.4529L53.9763 41.0305L56.7528 41.2867C56.7528 41.1187 57.0366 41.0305 57.5865 41.0305L56.7528 34.9785L56.8858 34.5632C56.1584 32.2838 55.7947 30.5873 55.7947 29.483H55.6617L55.6619 29.4832ZM59.0948 29.7482L59.5382 30.1812L59.6712 30.0575V29.8721L59.0946 29.7484L59.0948 29.7482ZM60.0616 30.3136L60.4429 30.729V30.57L60.1857 30.3136H60.0616ZM60.7623 30.8616V30.9853L61.3036 31.1441C61.3036 30.9498 61.1706 30.8615 60.8866 30.8615H60.7625L60.7623 30.8616ZM51.3775 31.4004V31.8157L51.9275 31.4004V31.2769L51.3775 31.4004ZM48.7518 47.887V48.1786L49.1687 48.0196V47.8871H48.7518V47.887ZM47.7939 48.1786V48.3023H47.9444L48.4678 48.1786V48.0196H48.2107L47.7939 48.1786ZM46.9865 48.3023L46.8535 48.4348V48.5671H46.9865L47.3767 48.4348V48.3023H46.9865ZM62.6783 50.087V50.3518L63.0952 50.2197V49.9631L62.6783 50.087ZM62.2702 51.0499H62.3943L63.3613 50.7671V50.4756C62.634 50.6344 62.2702 50.8202 62.2702 51.0499ZM61.0195 51.3062V51.4387H61.3034V51.0499L61.0195 51.3062ZM60.6291 51.4387L60.4429 51.8537H60.7623V51.4387H60.6293H60.6291ZM61.3034 52.6756L61.7204 53.0908V52.9408L61.4364 52.6756H61.3034ZM61.7204 53.2233V53.3736L62.2702 53.6386V53.2233H61.7204ZM62.5273 53.7624L62.9711 54.4692H63.2284V54.0276L62.6783 53.7624H62.5273ZM65.0201 55.4237V55.556C65.2597 56.0156 65.632 56.2539 66.1376 56.2539L65.0201 55.4237Z" fill="black"/>
<path d="M93.407 17.9708L93.5222 18.0858H93.6373L94.3507 17.9708H95.0485L95.386 18.2001L95.524 18.0856V17.9706C97.3033 17.9706 99.129 18.8263 101 20.5222L101.591 21.1103C101.591 21.3015 101.783 21.5764 102.174 21.9354L103.34 25.6482H103.455V26.3433L103.34 27.0387L103.562 27.9552C103.324 27.9552 103.209 28.0394 103.209 28.1999C103.447 28.1999 103.562 28.3145 103.562 28.536C103.447 30.9425 103.179 32.1418 102.757 32.1418L102.872 32.608C102.243 33.7003 101.583 34.6324 100.893 35.4118C99.1979 37.1075 97.2881 37.9632 95.1636 37.9632H93.7678L91.7658 37.8484V38.6585C91.7658 38.8036 91.6583 38.88 91.4283 38.88L91.7658 39.8197L91.5434 40.5147L91.7658 40.7364L91.6583 42.3711L91.7658 43.8915L91.5434 44.3418L91.7658 44.5865V45.0524L91.5434 45.3885L91.7658 45.6409V47.0237L91.6583 47.1384L91.7658 47.253V47.5815H91.5434C91.904 48.9871 92.6018 49.6902 93.6375 49.6902L93.7678 49.7972L94.5807 49.6902H94.9336L95.1636 49.9117C93.6067 51.6991 92.4717 52.6004 91.7658 52.6004C90.301 52.6004 89.5647 52.3255 89.5647 51.7679L89.4343 51.8828H89.2043L88.2837 51.6611C87.6856 52.2875 86.9799 52.6006 86.1747 52.6006C84.9013 52.6006 83.7357 52.0507 82.6694 50.9659L81.9716 49.7972L82.0865 49.6902H82.5545C84.2651 49.6902 85.1163 49.3769 85.1163 48.7505C85.3538 47.9103 85.4767 47.1079 85.4767 46.3285L85.2312 45.6411V44.923L85.4767 43.754L85.2312 43.5325V42.7305L85.3615 42.035L85.2312 41.8977V41.7908L85.5916 41.0953C85.3462 41.0953 85.2312 41.019 85.2312 40.8664L85.3615 40.2856L85.2312 39.4605L85.4767 37.9632C85.3538 37.9632 85.2004 37.4513 85.0089 36.4353C84.4029 35.6791 84.0192 35.2894 83.8352 35.2741L83.4977 34.8312L85.0089 32.9671L85.2312 32.501V31.447L85.3615 29.835L85.2312 29.4759L85.3615 28.6739L85.2312 26.8176L85.3615 26.3437L85.2312 25.4043L85.3615 25.0678C85.3615 23.1426 84.9398 22.0581 84.0804 21.7983L83.3674 21.9356L83.137 21.6913L82.0861 21.9356V21.6913C83.7047 19.8423 85.4917 18.9103 87.455 18.9103C87.7238 18.9103 88.0762 19.2236 88.5136 19.8349L88.621 19.9419H88.7361C89.6336 19.094 90.4923 18.5897 91.3209 18.4444L91.6583 18.5592C91.6583 18.2459 92.2414 18.0473 93.4074 17.9708H93.407ZM91.543 18.7809V18.9105H92.3564V18.7809H91.543ZM95.2707 19.4759V19.6059C95.5161 19.6059 95.631 19.6822 95.631 19.8351H95.7462V19.6059L95.631 19.4759H95.2707ZM95.9685 19.6059C95.9685 19.7586 96.0913 19.8351 96.3291 19.8351H96.4444V19.7204L95.9685 19.6057V19.6059ZM96.5518 19.6059L96.6896 19.942H97.1422L97.0271 19.6059H96.5516H96.5518ZM97.3874 19.942L97.6102 20.1865H97.7253L97.4952 19.942H97.3874ZM93.8825 21.9358L93.2996 21.7985L91.658 23.3262L91.7654 23.907V24.8235L91.543 25.068L91.6581 25.4045L91.543 27.5052L91.7654 29.8352L91.658 30.286L91.7654 31.2257V31.5618C91.7654 31.6916 91.3821 31.9359 90.5998 32.2724V32.3871H90.7378L91.658 32.028V32.1426L91.5428 32.6087C91.5428 33.1514 92.2409 33.4186 93.6369 33.4186L93.9896 33.5559L94.1047 33.4186C95.585 32.9527 96.3289 32.3796 96.3289 31.692C96.5129 31.6385 96.6665 30.6681 96.8043 28.7812L96.6892 28.0937V27.0397L96.8043 25.9855L96.6892 25.5196L96.8043 25.0686C96.3826 22.983 95.6 21.9363 94.465 21.9363L94.2196 21.6921L93.8821 21.9363L93.8825 21.9358ZM102.281 25.519V25.7633L102.757 25.519V25.2895L102.281 25.519ZM100.172 27.3752L100.647 27.2605L101.23 27.3752L101 27.0391V26.9244L101.591 26.2367V26.0994C101.138 26.6493 100.747 26.9244 100.417 26.9244L100.172 27.375V27.3752ZM101.928 27.3752V27.505L102.756 27.7341V27.505L102.035 27.3752H101.928H101.928ZM97.142 29.01L97.0269 29.117V29.3691H97.142L97.3872 29.117V29.01H97.142ZM86.5345 34.1361V34.2431H86.8719L86.9793 34.1361V33.9988H86.8719L86.5345 34.1361ZM84.8932 34.9384L84.5326 35.4122H84.7781C84.7781 35.2442 84.8934 35.1598 85.1157 35.1598L84.8934 34.9384H84.8932ZM90.2621 43.7542H90.377L90.9601 43.4257V43.1966C90.6456 43.3038 90.4155 43.4869 90.2623 43.7542H90.2621ZM89.2037 44.6939V44.8085H89.4338L89.5641 44.6939V44.5869L89.2037 44.6939ZM88.6206 45.3889V45.504L89.0963 45.2821V45.053L88.6206 45.3891V45.3889ZM87.2323 46.7794H87.3397L87.7003 46.4433H87.8154V46.1988L87.2323 46.7794ZM86.6419 47.2532H86.757L87.1174 46.9171V46.7794L86.6419 47.2532ZM88.8509 47.1386V47.36H89.3188V47.253L88.8509 47.1384V47.1386ZM113.762 18.1771C115.511 18.1771 117.145 18.9028 118.663 20.3468C120.19 22.1037 120.949 23.7692 120.949 25.3355C120.911 26.0996 120.834 26.4813 120.727 26.4813L120.949 26.9246C120.949 28.7197 120.343 30.4233 119.131 32.0508C118.94 32.0508 118.403 32.6158 117.536 33.7542V33.9756C119.338 34.7397 120.359 35.4958 120.612 36.26L120.842 36.7108L120.727 37.0619H120.842C121.064 37.0619 121.179 37.482 121.179 38.3224V38.7657L121.064 39.4379L121.179 39.5752L121.064 40.3546L121.179 41.6074L120.949 42.0584L121.064 42.4174L120.842 43.8918C121.064 44.6711 121.256 46.0995 121.402 48.1927C121.885 48.7275 122.299 48.995 122.66 48.995H122.775C123.059 48.995 123.366 48.8422 123.695 48.5444H123.81V48.659C123.81 49.0485 123.695 49.2701 123.473 49.3313H123.135L122.437 49.2166H122.322V49.3313L123.473 49.5527C123.02 50.6453 121.686 51.6308 119.469 52.5094L119.024 52.6467H118.664C117.774 52.6467 117.022 52.1042 116.394 51.0347C116.064 51.0347 115.565 50.4616 114.906 49.3311L115.021 49.2164V49.1094L114.906 48.4142L115.243 48.544H115.358V48.4142C115.205 48.4142 115.136 48.2995 115.136 48.0781L114.798 47.7416L114.906 47.4055L114.798 46.9547L115.021 45.4802L114.798 45.2587V44.5637L115.021 44.3418L114.906 43.5321L115.021 43.196L114.906 42.5238V42.1648L115.021 41.7215L114.906 41.2709V41.164L115.021 40.2396L114.906 39.3229L115.021 39.2157V39.101C114.844 39.101 114.729 38.6121 114.683 37.6266C114.683 37.0308 113.655 36.6868 111.607 36.5952H110.119V40.4683L109.989 42.638L110.119 43.1958L109.989 43.3105L110.119 43.8913V44.785L109.874 45.0141L110.119 45.8165L109.989 45.931L110.119 46.0382L109.989 46.1528H109.874L110.119 47.291L109.989 47.4056V47.5203L110.119 47.9636L109.989 48.2997C110.541 49.4532 111.155 50.0263 111.83 50.0263C112.19 50.0263 112.612 49.7972 113.088 49.3311H113.203V49.4458C112.919 50.1563 112.536 50.6528 112.052 50.9202C111.485 52.0661 110.726 52.6468 109.767 52.6468C108.747 52.5247 107.796 52.0204 106.906 51.1417C106.223 51.9819 105.579 52.3947 104.973 52.3947H104.751C103.585 52.3947 102.212 51.4092 100.64 49.4459V49.3313L102.35 49.7819L103.048 49.6672L103.378 49.7819L103.271 49.6672V49.5526C103.431 49.5526 103.662 49.1018 103.945 48.1927C103.792 48.1927 103.715 48.0783 103.715 47.8566L103.831 47.7418L103.715 47.1842V46.9549L103.831 46.0384L103.715 45.3659L103.831 45.0147L103.715 44.3422V43.7772L103.831 43.6472L103.715 43.5325V40.0185L103.945 39.682L103.715 37.0617L103.831 36.7106L102.12 34.8924L102.013 34.7854V34.6707C103.224 33.2802 103.83 32.3328 103.83 31.8285L103.945 31.0188L103.83 30.9118V30.6904L103.945 30.2396L103.715 29.5444V29.4295L103.945 29.208L103.715 28.4058L103.831 27.8404L103.715 26.8169V25.8081L103.831 25.2275L103.715 24.4406L103.945 21.7133C103.431 21.1709 102.941 20.9036 102.457 20.9036L100.64 21.8201V21.7131C101.506 20.445 102.534 19.6048 103.715 19.2075C103.915 18.8942 104.406 18.7337 105.203 18.7337C105.725 18.8409 106.331 19.2533 107.021 19.9867C108.777 18.856 109.997 18.2829 110.687 18.2829H110.795L110.91 18.3978L113.763 18.1761L113.762 18.1771ZM108.056 19.7662V19.8732H108.639V19.7662H108.056ZM110.234 19.7662V19.8732L110.794 19.9879H110.909V19.8732L110.349 19.7662H110.234ZM111.132 19.9877V20.1023L111.715 20.2093H112.052V19.9879H111.945L111.469 20.1025L111.354 19.9879H111.132V19.9877ZM112.842 20.3466V20.4613L113.31 20.5685V20.3468H112.842V20.3466ZM114.322 20.5683V20.6827L115.135 20.7974H115.358V20.6827L114.683 20.5683H114.322H114.322ZM115.58 20.7972V20.9046H116.056V20.7972H115.58ZM116.278 21.019V21.1337L117.068 21.2407H117.651V21.1337L116.393 21.019H116.278ZM117.873 21.2405V21.3552L118.548 21.4698H118.794V21.3552L118.096 21.2405H117.873ZM111.354 21.7141C111.354 21.9356 111.285 22.0502 111.132 22.0502L111.024 21.9356L110.457 22.0502H110.119V23.1886L109.989 23.6394L110.119 23.7463V23.861L109.989 24.7779L110.119 26.3668L109.989 27.0391L110.119 27.9556V28.7657L109.874 29.1018L110.119 29.7664L109.989 30.5761L110.119 31.0194L109.989 31.493C109.989 32.1652 110.219 32.5014 110.687 32.5014L112.282 32.6085C113.808 32.1959 114.568 31.4397 114.568 30.3548C114.568 29.7438 114.759 29.4305 115.135 29.4305V29.3235C114.836 29.3235 114.683 29.2088 114.683 28.9874V26.703L114.905 26.4815C114.621 23.8995 114.238 22.6084 113.762 22.6084C113.762 22.3411 113.195 22.112 112.052 21.9361V21.8215L111.944 21.9361H111.469V21.7147H111.354L111.354 21.7141ZM117.873 30.6906V30.7976H118.096L118.548 30.4613H118.433L117.873 30.6906H117.873ZM104.75 31.019V31.2482L105.203 31.4926V31.378L104.75 31.019ZM116.163 31.6071V31.7141H116.501L116.616 31.6071V31.4924H116.501L116.163 31.6071ZM114.683 32.1649V32.3865L115.02 32.2718V32.1647H114.683V32.1649ZM113.31 32.8601V33.0816L113.877 32.8601V32.7454H113.647L113.31 32.8601ZM112.052 33.303L112.167 33.4179V33.5325L112.619 33.4179V33.1962L112.052 33.3032V33.303ZM110.234 33.8685V33.9755H110.572L111.354 33.754V33.6393H111.024L110.234 33.8685ZM112.39 33.7538V33.8685H112.973V33.7538H112.39ZM114.798 34.2199V34.3346L115.358 34.4491H115.58V34.3346L114.905 34.2199H114.798ZM115.941 34.4489C115.941 34.594 116.056 34.6707 116.278 34.6707H116.393V34.5558L115.941 34.4487L115.941 34.4489ZM107.496 34.6707V34.8922L108.056 34.7852V34.6705H107.496V34.6707ZM117.313 34.8922V35.0068L117.758 35.1215H117.988V35.0068L117.429 34.8922H117.313H117.313ZM104.413 35.1213V35.2283H104.973V35.1213H104.413ZM105.425 35.1213C105.425 35.3274 104.965 35.5186 104.052 35.7019V35.8089H104.413C105.057 35.4956 105.556 35.3429 105.901 35.3429V35.1215L105.786 35.2285H105.648L105.54 35.1215H105.425L105.425 35.1213ZM119.131 35.5872V35.8087H119.584V35.7017L119.131 35.587V35.5872ZM110.349 35.7019V35.9237H110.687V35.8087L110.349 35.7017V35.7019ZM116.838 48.544V48.6587L118.096 48.9948H118.434C118.434 48.8878 117.943 48.7428 116.953 48.5442H116.838V48.544ZM118.794 48.8801L118.664 48.9948V49.1096H119.691V48.9948L118.794 48.8801H118.794ZM120.727 49.1094C120.727 49.2544 120.842 49.3309 121.064 49.3309H121.18V49.2162L120.727 49.1093L120.727 49.1094ZM132.967 18.1732C133.852 18.3876 134.79 18.8593 135.782 19.5827L137.332 21.4698L137.669 21.3552V21.4698C138.536 22.7608 139.173 24.0901 139.556 25.45C139.817 25.6563 140.07 26.3971 140.323 27.6655L140.231 28.0016C140.446 28.0016 140.622 28.6278 140.768 29.8809H140.438C140.737 30.3621 140.883 30.7211 140.883 30.9809L140.768 31.6456C140.906 31.6456 141.097 31.9741 141.335 32.6312L141.22 32.5242H141.105V32.6312C141.635 32.7075 141.895 32.9289 141.895 33.3032C142.256 33.4714 142.624 33.8075 143 34.312L141.335 36.1912L140.998 36.7336L141.105 37.0621L140.998 37.3984L141.105 37.9638L140.123 43.2656L140.231 43.7162C139.87 44.969 139.425 45.8859 138.881 46.4663C138.881 47.8261 137.815 49.2931 135.675 50.8742C134.387 51.9363 133.451 52.4938 132.883 52.555L132.009 52.3335L131.449 52.4405C129.616 52.4405 127.806 51.3712 126.011 49.2168L124.462 46.6882C124.462 46.0313 124.231 45.4048 123.787 44.8087L123.894 44.4726L123.58 44.1363L123.787 43.8232V43.716C123.273 43.716 122.943 42.3106 122.797 39.5068C122.675 39.5068 122.598 39.2469 122.567 38.7199V38.0706L122.682 37.6273L122.567 37.1765V37.0619L122.682 36.5043L120.795 34.5106V34.312C121.976 33.0131 122.567 32.2416 122.567 31.9817C122.567 30.6143 122.935 28.6204 123.671 26.0077C124.124 25.3355 124.462 24.4876 124.684 23.4561C125.689 21.7143 126.609 20.7213 127.445 20.4843L127.338 20.3698V20.2552C128.066 19.1551 128.925 18.605 129.899 18.605C130.015 18.3594 130.292 18.193 130.731 18.1073V18.1086L130.731 18.1435V18.1786V18.2139L130.73 18.2492V18.2845V18.3195L130.73 18.3548V18.3903V24.9865C130.729 25.3671 130.728 25.7061 130.729 26.086C130.73 26.3479 130.765 27.0117 130.712 27.2163C130.584 27.2605 130.409 27.2717 130.238 27.3079C130.07 27.3434 129.908 27.3812 129.737 27.4546L129.718 30.7201C129.428 30.7414 128.921 30.714 128.678 31.197C128.47 31.6105 128.74 31.9043 129.161 32.1618C129.14 32.5758 128.912 35.4114 128.834 35.6497C128.772 35.8395 128.724 35.9833 128.657 36.1716C128.17 37.5322 128.1 38.6439 127.943 39.9372C127.927 40.0668 127.914 40.0739 127.918 40.2122C127.923 40.3989 127.898 40.5247 127.886 40.7082L127.919 42.2187C128.012 44.0799 128.681 46.0359 130.79 46.4502C131.171 46.525 131.444 46.5336 131.812 46.5332C132.326 46.5332 132.279 46.5445 132.806 46.4586C134.947 46.1106 135.607 44.1593 135.732 42.3015C135.739 42.2034 135.728 42.1524 135.738 42.0546C135.782 41.6115 135.753 41.7233 135.756 41.2849C135.763 40.5345 135.74 40.4022 135.702 39.7723C135.69 39.5762 135.679 39.4538 135.658 39.2776C135.53 38.2104 135.234 36.7568 134.856 35.7327C134.759 35.4703 134.784 35.4777 134.762 35.2386C134.726 34.8431 134.519 32.3478 134.465 32.1854C134.661 32.0573 134.829 32.0002 134.96 31.777C135.059 31.6075 135.063 31.3923 134.989 31.2225C134.791 30.7703 134.24 30.6833 133.967 30.7385L133.95 27.4726C133.639 27.2905 133.258 27.2429 132.976 27.1977L132.966 18.3903V18.3587V18.323V18.2831V18.2398L132.966 18.1928V18.1732H132.967ZM139.671 29.6594V29.7664H139.894L140.323 29.6594V29.5447H140.124L139.671 29.6594ZM139.111 29.7664V29.8811H139.556V29.7664H139.111ZM140.008 31.9817V32.0964L140.438 32.2113H140.545V32.0964L140.124 31.9817H140.008ZM124.799 44.0291L125.021 44.2508H125.129V44.0291H124.799ZM135.445 47.3372V47.2302C134.183 46.7654 135.088 47.3372 135.445 47.3372ZM135.56 47.3372V47.5663H135.675L135.897 47.3372H135.56ZM137.332 48.0094V48.1241H137.784V48.0094H137.332ZM132.798 50.0033V50.1178H132.998L133.443 50.0033V49.8883H133.22L132.798 50.0033Z" fill="#C5C6C6"/>
<path fill-rule="evenodd" clip-rule="evenodd" d="M132.926 18.1282H130.694L130.693 16.6708C130.695 14.7835 130.839 15.1183 130.291 13.3733C130.06 12.6385 129.976 12.6115 130.132 12.2733C130.297 11.9157 130.467 11.5329 130.622 11.1744C130.761 10.8505 130.944 10.3656 131.114 10.0627L132.462 10.0585C132.819 10.7275 133.124 11.5629 133.453 12.2727C133.59 12.5685 133.546 12.5532 133.46 12.8237L132.978 14.4733C132.899 14.7287 132.916 16.8878 132.926 18.1282H132.926Z" fill="#C5C6C6"/>
<path d="M49.6577 7.93323C52.7155 9.04263 54.6775 11.0964 54.906 13.4252C55.1373 15.7748 53.6701 18.0312 50.7752 19.7791C47.1309 21.9766 43.2191 22.7085 40.3629 23.2434C38.6361 23.5663 37.2719 23.8208 36.5513 24.256C36.4143 24.3392 36.2331 24.4642 36.0279 24.6082C35.8033 24.7745 35.5823 24.934 35.3597 25.0916L34.875 25.449C31.9763 27.5894 26.5806 31.5743 20.4099 33.6537C19.5477 33.944 18.6931 34.1885 17.8527 34.3869C16.4634 34.7144 15.1083 34.9159 13.8007 34.9882C3.6001 35.5531 1.10987 33.3314 0.512344 32.3509C0.0886436 31.6518 -0.589354 27.4546 1.00265 23.2626C1.70972 21.4022 2.7681 19.7774 4.14931 18.4317C5.65777 16.964 7.55528 15.8283 9.79486 15.0517C9.62373 12.6976 9.49706 6.58665 12.4893 4.38433C14.1839 3.13821 16.5111 2.96296 18.2113 2.83699C18.681 2.80113 19.0876 2.77084 19.4058 2.72271C19.8135 2.65848 20.3606 2.33923 20.9928 1.96822C21.5588 1.63651 22.1711 1.28486 22.8689 0.974242C22.888 0.965422 22.9082 0.957944 22.9294 0.952384L22.9275 0.948549C24.0392 0.459422 25.1507 0.1837 26.3234 0.107005L26.6767 0.0826538C28.5497 -0.0460033 30.6673 -0.193451 32.7731 1.06474C34.9865 2.38449 36.6957 5.02569 37.9926 9.12604C38.7102 8.78724 39.8089 8.32419 41.15 7.94224C43.329 7.32043 46.5765 6.81347 49.6583 7.93266L49.6579 7.93304L49.6577 7.93323ZM9.78332 16.1817C5.95711 17.6 3.33984 20.1041 1.99732 23.6378C0.480966 27.6291 1.20093 31.4368 1.42231 31.8013C1.69913 32.2559 3.59105 34.4934 13.742 33.9312C21.1185 33.5216 28.1947 28.9617 32.4829 25.8829C26.7658 29.521 20.3808 31.924 20.3808 31.924C24.7957 29.4682 24.6787 26.4614 27.8436 21.2436C30.058 17.5917 31.3839 15.6923 34.1496 13.4743C37.3929 10.8747 42.2746 9.1805 45.1653 8.95022C47.6878 8.74851 49.8323 9.32027 51.1086 9.79003C50.5698 9.4612 49.9621 9.1711 49.2935 8.92855C43.8951 6.96763 37.7291 10.4466 37.6682 10.482L37.3419 10.6692L37.3404 10.6636C36.3413 11.2252 35.3693 11.8288 34.4397 12.4916C34.1785 12.6688 33.9313 12.8655 33.6792 13.054C33.4245 13.2398 33.186 13.4461 32.9405 13.643L32.7571 13.7922L32.5788 13.9466L32.2223 14.2566C32.1018 14.3575 31.989 14.4668 31.8739 14.5737L31.5301 14.8962C31.3052 15.1164 31.0842 15.3394 30.8651 15.5648L30.5471 15.9115L30.3875 16.0837L30.2337 16.262L29.9265 16.6183C29.8252 16.7383 29.7305 16.8625 29.6324 16.9841C29.4331 17.227 29.2524 17.4822 29.066 17.7342C28.7087 18.2467 28.3622 18.768 28.0621 19.3155C27.7545 19.855 27.4777 20.4287 27.1935 20.9993C26.0739 23.2885 24.9114 25.5865 23.4584 27.7198C23.0911 28.2505 22.7017 28.7672 22.2897 29.2662L21.9713 29.6322L21.6394 29.9882C21.5307 30.1083 21.4109 30.2197 21.297 30.3349C21.2384 30.3917 21.1807 30.4492 21.1214 30.5036L20.9397 30.6651C20.8184 30.774 20.6977 30.8825 20.567 30.9815L20.3776 31.1348L20.2821 31.211L20.1812 31.2811C20.0472 31.3726 19.9175 31.4713 19.7785 31.5565C19.6389 31.6408 19.5021 31.7289 19.3602 31.8086C18.7904 32.1206 18.1724 32.3587 17.5331 32.4433C18.1459 32.2475 18.7107 31.953 19.2235 31.5893C19.3511 31.4993 19.4753 31.4021 19.6014 31.3091C19.7269 31.2142 19.8426 31.1069 19.9627 31.007C20.084 30.909 20.1947 30.7957 20.3108 30.6904L20.325 30.6777C21.1216 29.8655 22.2085 28.3976 21.4458 27.6356C20.5254 26.7164 19.2447 26.6802 19.2447 26.6802C22.2154 26.3203 23.6049 24.9351 23.6049 24.9351C19.2747 26.5143 15.6945 25.3336 15.6945 25.3336C21.271 25.2387 24.0586 23.5268 24.9984 22.7963C24.7141 22.9102 24.4011 23.025 24.0611 23.1397C22.4254 23.69 20.177 24.2219 17.5757 24.4798C14.4232 24.7927 12.3863 24.5496 11.2342 24.2913C10.5364 24.1335 9.98737 23.6079 9.80295 22.918C9.70362 22.5468 9.65183 22.2017 9.63605 21.8827C9.18328 22.8565 9.71671 24.1592 9.71671 24.1592C3.55082 27.0199 2.44527 29.7001 2.44527 29.7001C2.19791 25.56 5.35304 21.5438 5.35304 21.5438C2.77426 23.8424 2.46163 25.5861 2.46163 25.5861C2.79929 20.3597 8.06407 17.1076 9.78293 16.1809L9.78332 16.1817ZM38.0423 22.6272C38.6708 22.4811 39.3836 22.3474 40.1665 22.2011C43.0978 21.6531 46.7457 20.9715 50.2239 18.8722C50.8513 18.4939 51.4022 18.092 51.8731 17.6726C51.0386 18.2227 49.8025 18.9021 48.1339 19.4805C44.6594 20.6852 42.034 21.0668 42.034 21.0668L45.4365 19.5452C44.8234 19.6619 44.2172 19.8019 43.621 19.9701C42.5667 20.2701 41.5472 20.6624 40.5735 21.1494L39.8487 21.5264L39.1409 21.9346C38.9081 22.0782 38.6737 22.2159 38.4438 22.3635L38.1017 22.5886L38.0421 22.627L38.0423 22.6272ZM36.9202 9.26544C35.7155 5.52786 34.1758 3.13668 32.2258 1.97359C30.4064 0.885658 28.4646 1.02103 26.7517 1.1401C26.6308 1.14834 26.5121 1.15697 26.3939 1.16483C25.1944 1.24364 24.2047 1.54294 23.3583 1.91357L23.128 2.03514C23.0489 2.07655 22.9692 2.11164 22.8913 2.1567C22.7363 2.24586 22.5792 2.32562 22.4264 2.41976C22.1162 2.59981 21.8057 2.78369 21.4979 2.97523L21.0334 3.26188L20.5622 3.54086C20.4053 3.63386 20.2468 3.72743 20.0865 3.81774C19.9271 3.90843 19.7677 4.00046 19.6037 4.08713C19.4424 4.17456 19.2818 4.26506 19.1126 4.34234C18.9449 4.42152 18.7811 4.50455 18.6088 4.57664C18.27 4.7262 17.9249 4.8654 17.572 4.97949L17.3044 5.05867C17.2161 5.08552 17.1289 5.11332 17.0367 5.13154L16.7654 5.19462C16.6751 5.21322 16.5868 5.23948 16.4938 5.25176C16.3107 5.27822 16.1282 5.30506 15.9457 5.325C15.7607 5.33727 15.5769 5.34763 15.394 5.35434L15.9284 5.23833C16.1049 5.19347 16.278 5.13556 16.453 5.08724C16.5404 5.06558 16.6237 5.02972 16.71 5.00019L16.9643 4.9095C17.0501 4.88112 17.1331 4.84393 17.2153 4.80845L17.4644 4.70166C17.7936 4.55536 18.1176 4.39813 18.4333 4.22442C18.5925 4.14197 18.7459 4.04686 18.902 3.95579C18.9769 3.91322 19.051 3.86874 19.1251 3.82368C18.8728 3.84918 18.5944 3.87008 18.2904 3.89328C16.7194 4.01024 14.5676 4.17265 13.1209 5.23699C10.5293 7.14537 10.7368 13.212 10.8625 15.0347C11.0223 16.8121 11.2286 18.5723 11.3936 19.5866C11.316 17.3791 11.1715 10.6973 12.1259 7.90811C12.1259 7.90811 11.5996 11.4789 12.0416 14.9294C12.4757 18.3263 13.2466 20.9613 14.1216 21.1767C15.0009 21.2173 16.1621 21.1703 17.6927 20.9625C20.4992 20.5813 23.1789 19.7476 25.1528 19.0115C23.3987 19.4466 21.6716 19.5987 21.6716 19.5987C24.1587 18.9874 26.8942 17.2677 26.8942 17.2677C24.9559 18.1111 22.2395 18.4026 22.2395 18.4026C25.5519 17.4606 27.9637 15.4534 27.9637 15.4534C26.2447 16.3264 23.3783 16.9975 23.3783 16.9975C26.1236 15.969 28.4787 13.9995 28.4787 13.9995C26.4582 15.1121 23.5034 15.7761 23.5034 15.7761C26.7096 14.5718 28.7133 12.7952 28.7133 12.7952C26.3444 14.0608 24.0155 14.498 24.0155 14.498C29.0997 12.3714 28.2975 9.74459 28.2975 9.74459C29.0951 9.6029 29.7067 9.18855 29.7067 9.18855C25.2875 9.61574 21.6275 6.81999 21.6275 6.81999C27.3235 9.16055 31.3874 7.51601 31.3874 7.51601C27.0274 8.23905 23.3319 6.10768 23.3319 6.10768C27.9239 6.11957 28.7701 3.69675 28.7701 3.69675C29.8351 3.09584 31.6679 3.28911 31.6679 3.28911C30.3288 1.94003 27.8086 1.68157 27.8086 1.68157C27.8086 1.68157 31.0548 1.28045 32.9438 3.09028C34.4417 4.52583 36.24 7.92077 36.9205 9.26505L36.9202 9.26544ZM10.7872 21.3209C10.7872 21.3209 10.7464 22.4805 10.9358 22.9878C11.0685 23.3426 11.4885 23.6679 12.144 23.8635C11.8475 23.819 11.5884 23.769 11.3643 23.7191C10.8804 23.6096 10.5006 23.2457 10.3731 22.7681C9.97428 21.2773 10.4471 20.2943 10.8294 19.7873C10.8511 19.9152 10.8725 20.0328 10.8935 20.1378C11.0042 20.6979 11.3849 21.1573 11.9093 21.3661C12.7409 21.697 14.4317 21.9962 17.7724 21.5437C20.0476 21.2348 22.241 20.6333 24.0553 20.0234C25.5365 19.5246 26.7641 19.0194 27.5758 18.6626C27.0902 19.0422 25.8776 19.8673 23.6247 20.6971L23.8318 22.6003C23.6105 22.6738 23.3777 22.7468 23.1344 22.8189L22.9648 20.9301C22.8553 20.9669 22.7442 21.0035 22.6304 21.0405C22.5022 21.0819 22.3732 21.1222 22.2445 21.1609L22.4013 23.0237C22.0362 23.1203 21.6525 23.2131 21.2529 23.3017L21.1006 21.4762C17.7684 22.3049 14.4756 22.3758 12.5205 22.0738C11.9022 21.9783 11.0814 21.7268 10.7872 21.3209ZM37.4547 14.8623C37.2952 15.0103 37.144 15.1672 36.9883 15.3185C36.8397 15.4766 36.6834 15.6275 36.5363 15.7886C36.2377 16.1036 35.9476 16.4273 35.6646 16.7571C35.0964 17.4146 34.5583 18.0998 34.0343 18.8001C33.5121 19.5014 33.0056 20.217 32.5061 20.952C32.5732 20.7391 32.6541 20.532 32.7399 20.3269C32.8246 20.121 32.918 19.9183 33.0145 19.7185C33.2077 19.3181 33.422 18.927 33.6511 18.5447C34.1123 17.7829 34.6336 17.0527 35.2182 16.3759C35.3624 16.2054 35.5153 16.0411 35.6658 15.876C35.8219 15.7152 35.9765 15.552 36.139 15.3984C36.4606 15.0865 36.7962 14.7889 37.1508 14.5143C37.8546 13.9602 38.6242 13.4845 39.4497 13.1439C38.7489 13.6954 38.0808 14.2556 37.4549 14.8625L37.4547 14.8623ZM3.02221 31.3993C3.89482 31.7438 4.78477 31.9942 5.68164 32.1975C6.58025 32.3969 7.48579 32.5434 8.39902 32.6331C8.62598 32.6582 8.85564 32.6663 9.08453 32.6851L9.42795 32.7127L9.77234 32.7217L10.4619 32.7455C10.6908 32.741 10.9214 32.7391 11.1522 32.7384L11.4983 32.7376C11.6142 32.7366 11.7291 32.7257 11.8454 32.7217C12.076 32.71 12.3076 32.7015 12.5402 32.6929C13.0035 32.6701 13.4661 32.6181 13.9395 32.6043C13.7164 32.6764 13.4904 32.7416 13.2642 32.8051C13.1502 32.8386 13.0372 32.8678 12.9225 32.8992L12.7513 32.9439C12.694 32.9573 12.6362 32.9667 12.5785 32.979C12.3469 33.0231 12.1151 33.0653 11.8824 33.1057C11.7659 33.1257 11.6494 33.1479 11.5318 33.1621L11.1809 33.198C10.9441 33.2215 10.7089 33.2432 10.4732 33.263C10.2367 33.2716 9.99988 33.2727 9.76233 33.2779L9.40659 33.281L9.05122 33.2633L8.69625 33.2428C8.57921 33.2334 8.45985 33.2338 8.34127 33.2171C7.39666 33.1238 6.46205 32.9309 5.5594 32.6406C4.66195 32.3436 3.78182 31.9597 3.02298 31.3993H3.02221Z" fill="black"/>
</svg>
